<svg version="1.1" viewBox="0.0 0.0 960.0 540.0" fill="none" stroke="none" stroke-linecap="square" stroke-miterlimit="10" 
  xmlns:xlink="http://www.w3.org/1999/xlink" 
  xmlns="http://www.w3.org/2000/svg">
  <clipPath id="g88cff795a2_0_2.0">
    <path d="m0 0l960.0 0l0 540.0l-960.0 0l0 -540.0z" clip-rule="nonzero"/>
  </clipPath>
  <g clip-path="url(#g88cff795a2_0_2.0)">
    <path fill="#000000" fill-opacity="0.0" d="m325.29135 223.47769l25.881866 0l49.41208 57.64566l58.824158 0l17.146973 29.700806l0 50.299194" fill-rule="evenodd"/>
    <path stroke="#000000" stroke-width="16.0" stroke-linejoin="round" stroke-linecap="butt" d="m325.29135 223.47769l25.881866 0l49.41208 57.64566l58.824158 0l17.146973 29.700806l0 50.299194" fill-rule="evenodd"/>
    <path fill="#000000" fill-opacity="0.0" d="m515.8793 359.9475l0 -58.824158l60.0 -76.4698l58.824158 0" fill-rule="evenodd"/>
    <path stroke="#000000" stroke-width="16.0" stroke-linejoin="round" stroke-linecap="butt" d="m515.8793 359.9475l0 -58.824158l60.0 -76.4698l58.824158 0" fill-rule="evenodd"/>
    <path fill="#000000" d="m437.59116 207.8157l29.967957 -12.1866455l-2.9264832 -33.733795l21.447266 26.202057l29.967773 -12.1870575l-16.7128 28.380402l21.447601 26.201767l-31.776367 -8.662003l-16.712433 28.380646l-2.926056 -33.73381z" fill-rule="evenodd"/>
    <path stroke="#000000" stroke-width="16.0" stroke-linejoin="round" stroke-linecap="butt" d="m437.59116 207.8157l29.967957 -12.1866455l-2.9264832 -33.733795l21.447266 26.202057l29.967773 -12.1870575l-16.7128 28.380402l21.447601 26.201767l-31.776367 -8.662003l-16.712433 28.380646l-2.926056 -33.73381z" fill-rule="evenodd"/>
    <path fill="#000000" fill-opacity="0.0" d="m538.2362 357.00262l0 0c0 -20.464966 16.590149 -37.055115 37.055115 -37.055115l0 0c9.827637 0 19.252747 3.9040222 26.201965 10.85318c6.9491577 6.949188 10.853149 16.374298 10.853149 26.201935l0 0c0 20.464966 -16.590149 37.055115 -37.055115 37.055115l0 0c-20.464966 0 -37.055115 -16.590149 -37.055115 -37.055115z" fill-rule="evenodd"/>
    <path stroke="#000000" stroke-width="16.0" stroke-linejoin="round" stroke-linecap="butt" d="m538.2362 357.00262l0 0c0 -20.464966 16.590149 -37.055115 37.055115 -37.055115l0 0c9.827637 0 19.252747 3.9040222 26.201965 10.85318c6.9491577 6.949188 10.853149 16.374298 10.853149 26.201935l0 0c0 20.464966 -16.590149 37.055115 -37.055115 37.055115l0 0c-20.464966 0 -37.055115 -16.590149 -37.055115 -37.055115z" fill-rule="evenodd"/>
    <path fill="#000000" fill-opacity="0.0" d="m379.41208 357.00262l0 0c0 -20.464966 16.590149 -37.055115 37.055115 -37.055115l0 0c9.827637 0 19.252747 3.9040222 26.201935 10.85318c6.9491577 6.949188 10.85318 16.374298 10.85318 26.201935l0 0c0 20.464966 -16.590149 37.055115 -37.055115 37.055115l0 0c-20.464966 0 -37.055115 -16.590149 -37.055115 -37.055115z" fill-rule="evenodd"/>
    <path stroke="#000000" stroke-width="16.0" stroke-linejoin="round" stroke-linecap="butt" d="m379.41208 357.00262l0 0c0 -20.464966 16.590149 -37.055115 37.055115 -37.055115l0 0c9.827637 0 19.252747 3.9040222 26.201935 10.85318c6.9491577 6.949188 10.85318 16.374298 10.85318 26.201935l0 0c0 20.464966 -16.590149 37.055115 -37.055115 37.055115l0 0c-20.464966 0 -37.055115 -16.590149 -37.055115 -37.055115z" fill-rule="evenodd"/>
    <path fill="#000000" fill-opacity="0.0" d="m380.5853 355.24146l-49.417328 0" fill-rule="evenodd"/>
    <path stroke="#000000" stroke-width="16.0" stroke-linejoin="round" stroke-linecap="butt" d="m380.5853 355.24146l-49.417328 0" fill-rule="evenodd"/>
    <path fill="#000000" fill-opacity="0.0" d="m634.7087 357.00262l-22.362244 0" fill-rule="evenodd"/>
    <path stroke="#000000" stroke-width="16.0" stroke-linejoin="round" stroke-linecap="butt" d="m634.7087 357.00262l-22.362244 0" fill-rule="evenodd"/>
  </g>
</svg>