<svg version="1.1" viewBox="0.0 0.0 960.0 540.0" fill="none" stroke="none" stroke-linecap="square" stroke-miterlimit="10" 
  xmlns:xlink="http://www.w3.org/1999/xlink" 
  xmlns="http://www.w3.org/2000/svg">
  <clipPath id="g88cff795a2_0_20.0">
    <path d="m0 0l960.0 0l0 540.0l-960.0 0l0 -540.0z" clip-rule="nonzero"/>
  </clipPath>
  <g clip-path="url(#g88cff795a2_0_20.0)">
    <path fill="#000000" fill-opacity="0.0" d="m403.0373 164.02896l0 0c0 -22.369705 18.134216 -40.503937 40.503937 -40.503937l0 0c10.74231 0 21.044647 4.2673645 28.640594 11.863327c7.595978 7.5959625 11.863342 17.8983 11.863342 28.64061l0 0c0 22.369705 -18.134247 40.503937 -40.503937 40.503937l0 0c-22.36972 0 -40.503937 -18.134232 -40.503937 -40.503937z" fill-rule="evenodd"/>
    <path stroke="#000000" stroke-width="16.0" stroke-linejoin="round" stroke-linecap="butt" d="m403.0373 164.02896l0 0c0 -22.369705 18.134216 -40.503937 40.503937 -40.503937l0 0c10.74231 0 21.044647 4.2673645 28.640594 11.863327c7.595978 7.5959625 11.863342 17.8983 11.863342 28.64061l0 0c0 22.369705 -18.134247 40.503937 -40.503937 40.503937l0 0c-22.36972 0 -40.503937 -18.134232 -40.503937 -40.503937z" fill-rule="evenodd"/>
    <path fill="#000000" fill-opacity="0.0" d="m364.15503 170.51082l29.161285 58.326157l61.564667 6.4806824l51.841858 -16.203522l22.684204 -56.703262" fill-rule="evenodd"/>
    <path stroke="#000000" stroke-width="16.0" stroke-linejoin="round" stroke-linecap="butt" d="m364.15503 170.51082l29.161285 58.326157l61.564667 6.4806824l51.841858 -16.203522l22.684204 -56.703262" fill-rule="evenodd"/>
    <path fill="#000000" fill-opacity="0.0" d="m454.8851 233.69798l24.299866 64.80684l46.98404 56.703247l9.722839 51.84546" fill-rule="evenodd"/>
    <path stroke="#000000" stroke-width="16.0" stroke-linejoin="round" stroke-linecap="butt" d="m454.8851 233.69798l24.299866 64.80684l46.98404 56.703247l9.722839 51.84546" fill-rule="evenodd"/>
    <path fill="#000000" fill-opacity="0.0" d="m595.83466 351.97113l-48.6037 -53.46457l-70.76114 -3.2125854" fill-rule="evenodd"/>
    <path stroke="#000000" stroke-width="16.0" stroke-linejoin="round" stroke-linecap="butt" d="m595.83466 351.97113l-48.6037 -53.46457l-70.76114 -3.2125854" fill-rule="evenodd"/>
    <path fill="#000000" fill-opacity="0.0" d="m376.31635 387.6184l74.519684 0" fill-rule="evenodd"/>
    <path stroke="#000000" stroke-width="16.0" stroke-linejoin="round" stroke-linecap="butt" d="m376.31635 387.6184l74.519684 0" fill-rule="evenodd"/>
  </g>
</svg>