<svg xmlns="http://www.w3.org/2000/svg" viewBox="0 0 59 85" x="0px" y="0px"><path fill="#000000" d="M201,914 C196.029437,914 192,909.970563 192,905 C192,900.029437 196.029437,896 201,896 C205.970563,896 210,900.029437 210,905 C210,909.970563 205.970563,914 201,914 Z M201,910 C203.761424,910 206,907.761424 206,905 C206,902.238576 203.761424,900 201,900 C198.238576,900 196,902.238576 196,905 C196,907.761424 198.238576,910 201,910 Z M213.54117,937.270585 L221.526773,946.708116 C221.732488,946.951234 221.877171,947.239963 221.948782,947.550281 L224.948782,960.550281 C225.197155,961.626564 224.526002,962.700409 223.449719,962.948782 C222.373436,963.197155 221.299591,962.526002 221.051218,961.449719 L218.16019,948.921931 L207.483373,936.303875 C207.342078,936.139574 207.226269,935.950836 207.143047,935.742781 L201.673061,922.067818 C197.043855,922.206578 192.581129,921.474924 188.299287,919.873233 C187.8455,919.703486 187.468758,919.374785 187.239058,918.9482 L180.239058,905.9482 C179.715382,904.975658 180.079259,903.762734 181.0518,903.239058 C182.024342,902.715382 183.237266,903.079259 183.760942,904.0518 L190.398359,916.378432 C194.379271,917.76167 198.528488,918.30363 202.862396,918.004739 C207.173416,917.707428 211.005301,916.583768 214.381792,914.635985 L219.133309,902.282042 C219.529826,901.251097 220.687013,900.736791 221.717958,901.133309 C222.748903,901.529826 223.263209,902.687013 222.866691,903.717958 L217.866691,916.717958 C217.709025,917.12789 217.420803,917.474524 217.046524,917.704344 C213.68944,919.765704 209.947436,921.098839 205.836151,921.705214 L210.385278,933.07803 L226.117444,934.003451 C226.636381,934.033977 227.123044,934.265353 227.474308,934.648551 L238.474308,946.648551 C239.220693,947.462789 239.165687,948.727923 238.351449,949.474308 C237.537211,950.220693 236.272077,950.165687 235.525692,949.351449 L225.073402,937.948951 L213.54117,937.270585 Z M197,964 C195.895431,964 195,963.104569 195,962 C195,960.895431 195.895431,960 197,960 L214,960 C215.104569,960 216,960.895431 216,962 C216,963.104569 215.104569,964 214,964 L197,964 Z" transform="translate(-180 -896)"/><text x="0" y="83" fill="#000000" font-size="5px" font-weight="bold" font-family="'Helvetica Neue', Helvetica, Arial-Unicode, Arial, Sans-serif">Created by Andrejs Kirma</text><text x="0" y="88" fill="#000000" font-size="5px" font-weight="bold" font-family="'Helvetica Neue', Helvetica, Arial-Unicode, Arial, Sans-serif">from the Noun Project</text></svg>