<svg xmlns="http://www.w3.org/2000/svg" viewBox="0 0 32 40" x="0px" y="0px"><title>Blood</title><g><path d="M22.1,16.17,15.67,5.42a.5.5,0,0,0-.43-.24h0a.51.51,0,0,0-.43.24L8.53,15.77a8.19,8.19,0,1,0,13.57.4ZM15.18,27.76A7.2,7.2,0,0,1,9.37,16.32l5.87-9.67,6,10a7.2,7.2,0,0,1-6.07,11.06Zm-2.87-2.5a.52.52,0,0,1-.43.24.48.48,0,0,1-.26-.07C9.55,24.18,9,20.63,9,20.48a.51.51,0,0,1,.42-.57.5.5,0,0,1,.57.42s.52,3.24,2.19,4.24A.51.51,0,0,1,12.31,25.26Zm3.26.95a.5.5,0,0,1-.44.55l-.4,0a3,3,0,0,1-1.59-.4.5.5,0,1,1,.54-.84,2.26,2.26,0,0,0,1.35.22A.49.49,0,0,1,15.57,26.21Z"/></g><text x="0" y="47" fill="#000000" font-size="5px" font-weight="bold" font-family="'Helvetica Neue', Helvetica, Arial-Unicode, Arial, Sans-serif">Created by Subagus Indra</text><text x="0" y="52" fill="#000000" font-size="5px" font-weight="bold" font-family="'Helvetica Neue', Helvetica, Arial-Unicode, Arial, Sans-serif">from the Noun Project</text></svg>