<svg xmlns="http://www.w3.org/2000/svg" version="1.1" x="0px" y="0px" viewBox="0 0 100 125"><path d="M-200,250 l0,-100 l372,0 l0,100 Z M300,0 c111,0,200,89,200,200 c0,111,-89,200,-200,200 c-111,0,-200,-89,-200,-200 c0,-111,89,-200,200,-200 Z M300,100 c-56,0,-100,44,-100,100 c0,56,44,100,100,100 c56,0,100,-44,100,-100 c0,-56,-44,-100,-100,-100 Z M-200,999 l0,-99 l61,0 c117,0,158,-49,230,-161 l124,-154 l233,-35 c119,-18,152,-62,152,-161 l0,-239 l100,0 l0,239 c0,163,-53,229,-217,255 l-201,32 l-102,120 c-100,138,-161,203,-316,203 Z M1200,0 c111,0,200,89,200,200 c0,111,-89,200,-200,200 c-111,0,-200,-89,-200,-200 c0,-111,89,-200,200,-200 Z M1200,100 c-56,0,-100,44,-100,100 c0,56,44,100,100,100 c56,0,100,-44,100,-100 c0,-56,-44,-100,-100,-100 Z M1500,150 l0,100 l-158,0 l0,-100 Z M1500,900 l0,99 l-197,0 c-134,0,-215,-52,-293,-155 l-167,-220 c-30,-40,-43,-95,-43,-164 l0,-310 l100,0 l0,307 c0,46,9,87,34,120 l166,222 c50,67,104,101,203,101 Z M428,710 l157,188 l258,-71 l-182,236 l205,189 l-272,-15 l-135,176 l15,-233 l-276,-116 l274,-92 Z M428,710 " fill="#000000" transform="matrix(0.05,0.0,0.0,-0.05,20.0,80.0)"/><text x="0" y="115" fill="#000000" font-size="5px" font-weight="bold" font-family="'Helvetica Neue', Helvetica, Arial-Unicode, Arial, Sans-serif">Created by Wolf Böse</text><text x="0" y="120" fill="#000000" font-size="5px" font-weight="bold" font-family="'Helvetica Neue', Helvetica, Arial-Unicode, Arial, Sans-serif">from the Noun Project</text></svg>