<svg xmlns="http://www.w3.org/2000/svg" xmlns:xlink="http://www.w3.org/1999/xlink" version="1.1" x="0px" y="0px" viewBox="0 0 100 125" enable-background="new 0 0 100 100" xml:space="preserve"><g><path fill="#000000" d="M49.539,94.053L11.725,56.262c-10.639-10.641-10.639-27.958,0-38.599   c5.155-5.155,12.008-7.992,19.298-7.992c6.922,0,13.451,2.558,18.504,7.229c5.05-4.668,11.581-7.229,18.505-7.229   c7.291,0,14.144,2.837,19.299,7.992c5.157,5.155,7.996,12.008,7.996,19.3c0,7.29-2.839,14.144-7.996,19.298L49.539,94.053z    M39.323,77.238l10.216,10.195l34.482-34.481c4.272-4.272,6.625-9.949,6.625-15.988c0-6.042-2.352-11.718-6.625-15.99   c-4.271-4.27-9.949-6.622-15.989-6.62c-6.04,0-11.718,2.35-15.988,6.62l-2.523,2.51l-2.51-2.51c-4.27-4.27-9.948-6.622-15.988-6.62   c-6.04,0-11.718,2.35-15.988,6.62c-8.815,8.817-8.815,23.162,0,31.979L39.323,77.238z"/></g><g><path fill="#000000" d="M45.138,59.675L29.621,48.471H16.625c-1.294,0-2.341-1.047-2.341-2.341c0-1.293,1.047-2.341,2.341-2.341   h14.509l11.978,8.648l10.653-25.214L72.125,43.79h12.445c1.293,0,2.341,1.047,2.341,2.341c0,1.294-1.047,2.341-2.341,2.341H70.323   L55.517,35.11L45.138,59.675z"/></g><text x="0" y="115" fill="#000000" font-size="5px" font-weight="bold" font-family="'Helvetica Neue', Helvetica, Arial-Unicode, Arial, Sans-serif">Created by Massimiliano Mauro</text><text x="0" y="120" fill="#000000" font-size="5px" font-weight="bold" font-family="'Helvetica Neue', Helvetica, Arial-Unicode, Arial, Sans-serif">from the Noun Project</text></svg>